<svg width="1020" height="1020" viewBox="0 0 1020 1020" fill="none" xmlns="http://www.w3.org/2000/svg">
<rect width="1020" height="1020" rx="80" fill="black"/>
<path d="M368.001 715.611C370.902 697.942 360.892 680.689 344.112 674.439L336.124 671.463C317.408 664.492 304.996 646.623 304.996 626.652V470.151C304.996 448.91 312.757 427.274 331.333 416.973C335.292 414.778 339.368 412.833 343.563 411.138C357.771 405.059 372.657 402.02 388.219 402.02C408.855 402.02 425.094 409.618 436.934 424.816C449.113 439.675 455.202 461.458 455.202 490.164V637.485C455.202 651.695 449.005 665.198 438.232 674.464L435.291 676.993C426.95 684.167 421.949 694.472 421.474 705.464V705.464C420.496 728.108 438.59 747 461.255 747H605.618C624.118 747 639.789 733.365 642.347 715.042V715.042C644.774 697.654 634.675 680.947 618.151 675.013L608.705 671.621C589.071 664.571 575.976 645.955 575.976 625.094V473.487C575.976 451.475 584.415 429.43 603.094 417.784C606.727 415.518 610.374 413.472 614.035 411.645C626.891 405.228 641.269 402.02 657.169 402.02C678.82 402.02 695.397 409.618 706.899 424.816C718.402 440.013 724.153 461.796 724.153 490.164V638.123C724.153 651.953 718.233 665.122 707.888 674.301L705.253 676.639C696.916 684.037 692.019 694.562 691.731 705.705V705.705C691.144 728.336 709.331 747 731.97 747H876.958C895.288 747 910.851 733.568 913.531 715.435V715.435C916.125 697.887 905.889 680.97 889.141 675.124L878.963 671.572C858.884 664.563 845.434 645.622 845.434 624.356V430.388C845.434 382.432 834.947 346.634 813.972 322.993C793.336 299.015 763.058 287.026 723.138 287.026C672.472 287.026 623.119 313.911 575.08 367.682C573.74 369.182 571.732 369.934 569.74 369.65V369.65C567.368 369.312 565.438 367.581 564.77 365.28C556.82 337.863 543.302 317.858 524.216 305.263C504.595 291.754 480.913 285 453.173 285C400.948 285 351.705 310.795 305.443 362.386C304.535 363.399 303.167 363.891 301.825 363.668V363.668C299.659 363.307 298.202 361.249 298.582 359.086L306.231 315.562C307.371 309.078 305.396 302.434 300.899 297.625V297.625C296.445 292.86 290.026 290.442 283.534 291.082L145.304 304.725C127.015 306.531 112.295 320.539 109.586 338.716V338.716C106.915 356.64 116.599 374.127 133.208 381.374L146.373 387.118C167.82 396.477 181.685 417.653 181.685 441.054V617.773C181.685 643.127 166.05 665.855 142.373 674.921L127.054 680.787C115.102 685.363 106.7 696.223 105.273 708.942V708.942C102.994 729.236 118.875 747 139.297 747H331.037C349.382 747 365.028 733.714 368.001 715.611V715.611Z" fill="white"/>
</svg>
